<svg width="141" height="41" viewBox="0 0 141 41" fill="none" xmlns="http://www.w3.org/2000/svg">
<path d="M132.28 0.823936H138.963C139.101 0.821165 139.238 0.846481 139.366 0.898346C139.494 0.950211 139.61 1.02754 139.707 1.12565C139.805 1.22375 139.881 1.34058 139.931 1.46904C139.982 1.5975 140.006 1.73492 140.002 1.87294V30.1129C140.002 30.5619 139.631 30.9369 138.963 30.9369H132.282C132.074 30.9092 131.881 30.8132 131.733 30.6642C131.585 30.5151 131.491 30.3213 131.465 30.1129V1.87294C131.449 1.62834 131.523 1.38637 131.674 1.19298C131.825 0.999598 132.041 0.868266 132.282 0.823936" fill="#00AFAA"/>
<path d="M93.7541 0.823975H100.435C100.676 0.868305 100.893 0.999637 101.043 1.19302C101.194 1.38641 101.268 1.62838 101.252 1.87297V30.113C101.251 30.33 101.165 30.5379 101.012 30.692C100.859 30.8461 100.652 30.9341 100.435 30.937H93.7541C93.51 30.9502 93.2695 30.8736 93.0781 30.7216C92.8866 30.5696 92.7575 30.3527 92.7151 30.112V1.87297C92.7194 1.59782 92.8299 1.33499 93.0236 1.13948C93.2172 0.943964 93.479 0.830911 93.7541 0.823975Z" fill="#00AFAA"/>
<path d="M119.364 8.68894H125.822C126.03 8.66116 126.223 8.56524 126.371 8.41617C126.519 8.26709 126.613 8.07325 126.639 7.86494V1.87294C126.668 1.62577 126.599 1.37705 126.446 1.18069C126.293 0.984336 126.069 0.856157 125.822 0.823936H106.893C106.755 0.821165 106.618 0.846481 106.49 0.898346C106.362 0.950211 106.246 1.02754 106.149 1.12565C106.051 1.22375 105.975 1.34058 105.925 1.46904C105.874 1.5975 105.85 1.73492 105.854 1.87294V7.78994C105.854 8.23894 106.225 8.61394 106.893 8.61394H110.901V20.2999C110.977 23.2825 112.229 26.1141 114.385 28.1769C116.54 30.2397 119.424 31.3663 122.407 31.3109H125.822C126.03 31.2832 126.223 31.1872 126.371 31.0382C126.519 30.8891 126.613 30.6953 126.639 30.4869V23.8949C126.638 23.6779 126.552 23.47 126.399 23.3159C126.246 23.1618 126.039 23.0738 125.822 23.0709H123.372C122.353 23.0336 121.382 22.6244 120.644 21.9207C119.906 21.2169 119.45 20.2673 119.364 19.2509V8.68894Z" fill="#00AFAA"/>
<path d="M88.335 1.72397C88.3339 1.50696 88.2477 1.29903 88.0949 1.14492C87.9421 0.990814 87.735 0.902855 87.518 0.899975H80.689C80.4809 0.927749 80.2878 1.02367 80.14 1.17274C79.9922 1.32182 79.898 1.51566 79.872 1.72397V22.547C78.4075 23.4273 76.7524 23.9418 75.047 24.047C74.4995 24.0755 73.952 23.9918 73.4381 23.801C72.9242 23.6102 72.4547 23.3164 72.0585 22.9376C71.6623 22.5588 71.3476 22.103 71.134 21.5981C70.9203 21.0933 70.8121 20.5501 70.816 20.002V1.87297C70.8452 1.62596 70.7759 1.37738 70.6232 1.18105C70.4705 0.984717 70.2466 0.856435 70 0.823975H63.171C62.9299 0.868305 62.7135 0.999637 62.5629 1.19302C62.4122 1.38641 62.3379 1.62838 62.354 1.87297V19.473C62.3453 22.4784 63.4874 25.3732 65.546 27.563C65.9028 28.0979 66.3874 28.5355 66.956 28.836C68.9762 30.3855 71.4623 31.2041 74.008 31.158H75.418C78.9962 31.2287 82.5532 30.5921 85.885 29.285C87.667 28.461 88.112 27.785 88.112 25.914L88.335 1.72397Z" fill="#00AFAA"/>
<path d="M18.558 12.509H8.537V11.236C8.537 11.236 8.76 7.191 12.768 7.191H14.55C18.558 7.191 18.558 11.236 18.558 11.236V12.509ZM27.02 11.685C27.023 10.1523 26.7239 8.63396 26.1397 7.21693C25.5554 5.7999 24.6976 4.51193 23.6152 3.42668C22.5329 2.34143 21.2472 1.48019 19.8317 0.89221C18.4162 0.304231 16.8987 0.00104846 15.366 0H11.729C8.62942 0.0114979 5.65943 1.2449 3.46356 3.43252C1.2677 5.62015 0.0231486 8.58549 1.22562e-06 11.685V19.325C-0.0284886 22.4751 1.18763 25.5091 3.38398 27.7674C5.58032 30.0258 8.57932 31.3258 11.729 31.385H13.729C19.593 31.385 23.829 29.512 26.051 26.067C26.868 24.344 26.422 23.295 25.012 22.696L22.2 20.974C20.567 20.15 19.973 20.374 19.008 21.798C17.82 23.298 16.187 23.898 13.738 23.898H12.545C8.537 23.898 8.537 19.853 8.537 19.853V18.8H24.051C24.4599 18.8554 24.876 18.8164 25.2675 18.6859C25.6589 18.5554 26.0153 18.3369 26.3091 18.0472C26.603 17.7575 26.8265 17.4043 26.9626 17.0147C27.0986 16.6252 27.1436 16.2096 27.094 15.8L27.02 11.68V11.685Z" fill="#00AFAA"/>
<path d="M55.455 2.1C52.245 0.788574 48.8217 0.0768062 45.355 0V7.191H47.137C47.4074 7.19374 47.6744 7.25068 47.9224 7.35844C48.1704 7.46621 48.3942 7.62262 48.5807 7.81841C48.7672 8.01421 48.9125 8.24541 49.008 8.49835C49.1036 8.75129 49.1474 9.02082 49.137 9.291V21.8C49.1454 22.3423 48.9405 22.8663 48.5665 23.259C48.1924 23.6518 47.6791 23.882 47.137 23.9H45.355V31.316C46.6528 31.2861 47.945 31.1358 49.215 30.867V38.957C49.1858 39.2042 49.2552 39.4529 49.4081 39.6492C49.561 39.8456 49.7852 39.9738 50.032 40.006H56.713C56.8518 40.0092 56.9898 39.984 57.1186 39.932C57.2473 39.8799 57.364 39.8021 57.4616 39.7033C57.5592 39.6045 57.6356 39.4868 57.686 39.3575C57.7364 39.2281 57.7599 39.0898 57.755 38.951V5.468C57.681 3.368 57.31 2.768 55.455 2.097" fill="#00AFAA"/>
<path d="M42.386 23.97C41.8529 23.9268 41.3543 23.6888 40.9855 23.3015C40.6166 22.9142 40.4032 22.4046 40.386 21.87V9.288C40.3776 8.74567 40.5825 8.22173 40.9565 7.82896C41.3306 7.43619 41.8439 7.20602 42.386 7.188H44.168V0H43.574C37.116 0 32.068 5.094 31.697 11.685V19.325C31.7018 22.4905 32.9489 25.5276 35.1701 27.783C37.3913 30.0384 40.409 31.3318 43.574 31.385H44.168V23.97H42.386Z" fill="#00AFAA"/>
</svg>
